<svg version="1.1" id="Layer_1" xmlns="http://www.w3.org/2000/svg" xmlns:xlink="http://www.w3.org/1999/xlink" x="0px" y="0px"
	 width="100%" viewBox="0 0 1080 1080" enable-background="new 0 0 1080 1080" xml:space="preserve">
<path fill="#000000" opacity="1.000000" stroke="none" 
	d="
M503.000000,1081.000000 
	C335.352631,1081.000000 168.205246,1081.000000 1.028935,1081.000000 
	C1.028935,721.060852 1.028935,361.121674 1.028935,1.091248 
	C360.897614,1.091248 720.795227,1.091248 1080.846436,1.091248 
	C1080.846436,360.999939 1080.846436,720.999939 1080.846436,1081.000000 
	C888.454529,1081.000000 695.977234,1081.000000 503.000000,1081.000000 
M207.056137,774.254211 
	C208.292572,774.502930 209.528748,774.967407 210.765488,774.968933 
	C243.093170,775.008606 275.420929,775.002930 307.748688,774.989746 
	C308.878235,774.989319 310.007721,774.832214 311.676971,774.708008 
	C311.676971,719.497070 311.676971,664.480591 311.676971,609.977173 
	C333.686493,609.977173 355.186523,610.905823 376.573639,609.748352 
	C405.008057,608.209473 432.449280,601.418396 458.213104,588.918518 
	C483.075287,576.856018 504.273315,560.381897 519.041138,536.561401 
	C536.664551,508.134644 542.544678,476.848846 541.156250,443.886871 
	C538.681335,385.130310 503.713348,338.682922 447.885895,319.805786 
	C420.342773,310.492584 391.874084,306.801819 362.967529,306.243713 
	C321.458008,305.442291 280.012573,306.827942 238.707397,311.242249 
	C228.175934,312.367767 217.691254,313.931122 207.002930,315.316925 
	C207.002930,468.374695 207.002930,620.830688 207.056137,774.254211 
M846.101807,540.629211 
	C869.804321,506.381165 893.506836,472.133057 917.345642,437.687988 
	C916.318787,437.357391 916.033264,437.185059 915.747620,437.184937 
	C879.416077,437.169250 843.084290,437.117126 806.753845,437.317322 
	C805.059753,437.326660 802.672302,439.218292 801.794861,440.865570 
	C784.463318,473.401398 767.308411,506.031250 750.113647,538.639954 
	C749.232300,540.311340 748.315491,541.964050 746.965881,544.454773 
	C745.541016,542.048767 744.616272,540.534180 743.736023,538.994019 
	C725.106018,506.395599 706.454895,473.809082 687.900269,441.167816 
	C686.262207,438.286224 684.459167,437.049805 680.935547,437.065399 
	C645.104553,437.224030 609.272705,437.162323 573.441040,437.162292 
	C572.010132,437.162292 570.579163,437.162292 568.034546,437.162292 
	C605.728638,493.040344 642.857971,548.081177 679.913086,603.012085 
	C641.659424,660.368958 603.684692,717.307678 565.206543,775.001099 
	C567.063171,775.001099 567.988770,775.001160 568.914307,775.001160 
	C604.912598,775.001221 640.911255,774.938293 676.908752,775.104553 
	C680.274231,775.120178 681.459412,773.562317 682.730530,771.076538 
	C700.646729,736.039246 718.613037,701.027710 736.587402,666.020264 
	C737.197693,664.831604 738.019714,663.751587 739.095703,662.069763 
	C740.146484,663.659668 740.731323,664.409668 741.175049,665.235413 
	C760.119629,700.489502 779.095276,735.727051 797.909119,771.050781 
	C799.553040,774.137451 801.407349,775.090759 804.811035,775.079041 
	C841.142212,774.953674 877.474060,775.001221 913.805664,775.001221 
	C915.253540,775.001221 916.701477,775.001160 918.808289,775.001160 
	C917.479675,772.792664 916.518127,771.113831 915.481506,769.482727 
	C879.984802,713.631165 844.507385,657.767273 808.905273,601.982971 
	C807.001343,598.999756 806.966003,597.059082 809.026306,594.137268 
	C821.393066,576.598999 833.528992,558.897949 846.101807,540.629211 
z"/>
<path fill="#FFFFFF" opacity="1.000000" stroke="none" 
	d="
M207.029541,773.770386 
	C207.002930,620.830688 207.002930,468.374695 207.002930,315.316925 
	C217.691254,313.931122 228.175934,312.367767 238.707397,311.242249 
	C280.012573,306.827942 321.458008,305.442291 362.967529,306.243713 
	C391.874084,306.801819 420.342773,310.492584 447.885895,319.805786 
	C503.713348,338.682922 538.681335,385.130310 541.156250,443.886871 
	C542.544678,476.848846 536.664551,508.134644 519.041138,536.561401 
	C504.273315,560.381897 483.075287,576.856018 458.213104,588.918518 
	C432.449280,601.418396 405.008057,608.209473 376.573639,609.748352 
	C355.186523,610.905823 333.686493,609.977173 311.676971,609.977173 
	C311.676971,664.480591 311.676971,719.497070 311.676971,774.708008 
	C310.007721,774.832214 308.878235,774.989319 307.748688,774.989746 
	C275.420929,775.002930 243.093170,775.008606 210.765488,774.968933 
	C209.528748,774.967407 208.292572,774.502930 207.029541,773.770386 
M320.950592,387.401123 
	C317.859711,387.859619 314.768829,388.318085 311.583496,388.790588 
	C311.583496,435.311035 311.583496,481.403290 311.583496,528.076538 
	C318.352478,528.582092 324.944580,529.224731 331.552246,529.538818 
	C348.912354,530.363831 366.156464,529.802185 383.057129,525.066895 
	C437.864655,509.710663 446.216553,456.070465 429.727142,421.629211 
	C419.893555,401.089905 401.378235,392.173950 380.067749,388.003693 
	C360.708771,384.215363 341.274139,385.314911 320.950592,387.401123 
z"/>
<path fill="#FEFEFE" opacity="1.000000" stroke="none" 
	d="
M845.921997,540.940308 
	C833.528992,558.897949 821.393066,576.598999 809.026306,594.137268 
	C806.966003,597.059082 807.001343,598.999756 808.905273,601.982971 
	C844.507385,657.767273 879.984802,713.631165 915.481506,769.482727 
	C916.518127,771.113831 917.479675,772.792664 918.808289,775.001160 
	C916.701477,775.001160 915.253540,775.001221 913.805664,775.001221 
	C877.474060,775.001221 841.142212,774.953674 804.811035,775.079041 
	C801.407349,775.090759 799.553040,774.137451 797.909119,771.050781 
	C779.095276,735.727051 760.119629,700.489502 741.175049,665.235413 
	C740.731323,664.409668 740.146484,663.659668 739.095703,662.069763 
	C738.019714,663.751587 737.197693,664.831604 736.587402,666.020264 
	C718.613037,701.027710 700.646729,736.039246 682.730530,771.076538 
	C681.459412,773.562317 680.274231,775.120178 676.908752,775.104553 
	C640.911255,774.938293 604.912598,775.001221 568.914307,775.001160 
	C567.988770,775.001160 567.063171,775.001099 565.206543,775.001099 
	C603.684692,717.307678 641.659424,660.368958 679.913086,603.012085 
	C642.857971,548.081177 605.728638,493.040344 568.034546,437.162292 
	C570.579163,437.162292 572.010132,437.162292 573.441040,437.162292 
	C609.272705,437.162323 645.104553,437.224030 680.935547,437.065399 
	C684.459167,437.049805 686.262207,438.286224 687.900269,441.167816 
	C706.454895,473.809082 725.106018,506.395599 743.736023,538.994019 
	C744.616272,540.534180 745.541016,542.048767 746.965881,544.454773 
	C748.315491,541.964050 749.232300,540.311340 750.113647,538.639954 
	C767.308411,506.031250 784.463318,473.401398 801.794861,440.865570 
	C802.672302,439.218292 805.059753,437.326660 806.753845,437.317322 
	C843.084290,437.117126 879.416077,437.169250 915.747620,437.184937 
	C916.033264,437.185059 916.318787,437.357391 917.345642,437.687988 
	C893.506836,472.133057 869.804321,506.381165 845.921997,540.940308 
z"/>
<path fill="#000000" opacity="1.000000" stroke="none" 
	d="
M321.392792,387.330505 
	C341.274139,385.314911 360.708771,384.215363 380.067749,388.003693 
	C401.378235,392.173950 419.893555,401.089905 429.727142,421.629211 
	C446.216553,456.070465 437.864655,509.710663 383.057129,525.066895 
	C366.156464,529.802185 348.912354,530.363831 331.552246,529.538818 
	C324.944580,529.224731 318.352478,528.582092 311.583496,528.076538 
	C311.583496,481.403290 311.583496,435.311035 311.583496,388.790588 
	C314.768829,388.318085 317.859711,387.859619 321.392792,387.330505 
z"/>
</svg>